<svg width="32" height="30" viewBox="0 0 32 30" fill="none" xmlns="http://www.w3.org/2000/svg">
<mask id="mask0_746_902" style="mask-type:alpha" maskUnits="userSpaceOnUse" x="0" y="0" width="32" height="30">
<rect width="32" height="30" fill="#D9D9D9"/>
</mask>
<g mask="url(#mask0_746_902)">
<path d="M24.0002 26.25L29.3335 21.25L27.4668 19.5L25.3335 21.5V16.2813H22.6668V21.5L20.5335 19.5L18.6668 21.25L24.0002 26.25ZM18.6668 30V27.5H29.3335V30H18.6668ZM8.00016 25C7.26683 25 6.63905 24.7552 6.11683 24.2656C5.59461 23.776 5.3335 23.1875 5.3335 22.5V5C5.3335 4.3125 5.59461 3.72396 6.11683 3.23438C6.63905 2.74479 7.26683 2.5 8.00016 2.5H17.3335L25.3335 10V13.7813H22.6668V11.25H16.0002V5H8.00016V22.5H16.0002V25H8.00016Z" fill="white"/>
</g>
</svg>
