<svg width="120" height="41" viewBox="0 0 120 41" fill="none" xmlns="http://www.w3.org/2000/svg">
<path d="M0 1.55796C3.11806 1.55796 4.43824 3.74902 5.83949 6.10054L17.3158 25.9397C17.8572 26.9287 18.3899 28.1249 18.3754 29.2452C18.332 32.1628 14.5741 33.2306 12.3246 33.3298C10.6919 33.3861 9.06909 33.0532 7.58815 32.3582L6.67329 33.5515C7.20599 35.8388 9.30786 38.6192 12.1972 38.5959C17.2145 38.5609 19.849 33.9279 21.8641 30.1701L25.5988 23.1943L14.7652 4.45797C13.7635 2.78332 15.4079 1.56379 17.1566 1.54045L17.5445 0H0.399529L0 1.55796Z" fill="url(#paint0_linear_33_670)"/>
<path d="M63.2791 9.14911H64.6716C65.4041 9.14911 65.6936 8.34096 65.6936 7.80122C65.6936 7.26148 65.3867 6.58171 64.6456 6.58171H63.2762V9.14911H63.2791ZM61.6231 10.5437V2.46802H63.2791V5.20464H64.4371C66.3798 5.20464 67.4104 6.40082 67.393 7.77497C67.3757 9.14911 66.4145 10.5437 64.4574 10.5437H61.6057H61.6231Z" fill="#222222"/>
<path d="M113.904 14.6194C114.509 15.0738 115.244 15.3193 115.998 15.3193C116.753 15.3193 117.488 15.0738 118.093 14.6194L117.427 13.6333C117.016 13.9469 116.514 14.1165 115.998 14.1165C115.483 14.1165 114.981 13.9469 114.57 13.6333L113.904 14.6194ZM119.26 24.1597V16.119H117.636L114.358 21.5893V16.119H112.749V24.1597H114.358L117.63 18.7039V24.1597H119.254H119.26Z" fill="#222222"/>
<path d="M61.5591 18.3974V19.3981H59.0866V18.5229C59.0866 17.8052 59.7004 17.3967 60.4126 17.3967C60.8498 17.3967 61.5707 17.6885 61.5707 18.4091L61.5591 18.3974ZM63.4033 23.223L62.7055 21.9597C62.0917 22.5057 61.3063 22.8156 60.4879 22.835C59.6946 22.835 59.0809 22.3944 59.0809 21.5279V20.7752H63.2267V18.8146C63.2267 16.7724 61.9441 15.9905 60.4068 15.9905C58.6408 15.9905 57.4075 16.9037 57.4075 18.908V21.5892C57.4075 23.3834 58.5655 24.285 60.3576 24.285C61.6662 24.2879 62.471 23.859 63.4033 23.223Z" fill="#222222"/>
<path d="M56.8429 36.4194H58.2354C58.9679 36.4194 59.2574 35.8359 59.2574 35.2903C59.2666 35.1511 59.2455 35.0114 59.1955 34.8812C59.1455 34.7511 59.0679 34.6335 58.968 34.5367C58.8681 34.44 58.7485 34.3664 58.6174 34.3212C58.4864 34.276 58.3471 34.2603 58.2094 34.275H56.84V36.4165L56.8429 36.4194ZM56.8429 31.1679V32.9038H58.0357C58.1499 32.9154 58.2652 32.9011 58.3733 32.8619C58.4813 32.8228 58.5793 32.7598 58.6601 32.6776C58.7408 32.5954 58.8023 32.496 58.8401 32.3867C58.8778 32.2774 58.8908 32.1611 58.8781 32.0461C58.884 31.934 58.8673 31.8219 58.829 31.7165C58.7907 31.6111 58.7317 31.5146 58.6554 31.4328C58.5791 31.351 58.4872 31.2856 58.3851 31.2406C58.2831 31.1956 58.1731 31.1718 58.0617 31.1708H56.8429V31.1679ZM55.1869 37.8111V29.7762H58.0357C59.9928 29.7762 60.6065 30.9783 60.5776 31.8973C60.5831 32.2309 60.4946 32.5593 60.3224 32.8444C60.1503 33.1294 59.9014 33.3594 59.6048 33.5077C60.0028 33.6414 60.3483 33.8991 60.5913 34.2437C60.8344 34.5883 60.9624 35.0018 60.9568 35.4245C60.9568 36.5915 60.1057 37.8169 58.1457 37.8169H55.184L55.1869 37.8111Z" fill="#222222"/>
<path d="M104.734 29.7762V31.1533H106.752L106.749 37.8344H106.856H108.373H108.477V31.1533H110.492V29.7762H104.734Z" fill="#222222"/>
<path d="M92.161 0.986113C92.7662 1.44052 93.5009 1.68597 94.2556 1.68597C95.0104 1.68597 95.745 1.44052 96.3502 0.986113L95.6843 0C95.273 0.313562 94.7714 0.483235 94.2556 0.483235C93.7399 0.483235 93.2382 0.313562 92.8269 0L92.161 0.986113ZM97.517 10.5263V2.4857H95.8928L92.6039 7.96767V2.4857H90.9943V10.5263H92.6184L95.8899 5.0706V10.5263H97.5141H97.517Z" fill="#222222"/>
<path d="M43.3142 8.03213C43.3142 8.73233 42.6194 9.15828 41.9882 9.15828C41.4752 9.14524 40.9751 8.99305 40.5407 8.71774V4.37649C40.9784 4.01226 41.5249 3.80677 42.0925 3.79298C42.2495 3.78674 42.4062 3.81215 42.5534 3.86771C42.7005 3.92327 42.8352 4.00787 42.9496 4.11655C43.0639 4.22524 43.1555 4.35582 43.2191 4.50065C43.2827 4.64547 43.317 4.80164 43.32 4.95999V8.03213H43.3142ZM44.9876 7.85708V5.08252C44.9876 3.33202 44.0611 2.34006 42.3443 2.34006C41.6958 2.34006 40.5812 2.60264 40.1267 2.97608C40.0039 2.69075 39.7798 2.46187 39.4984 2.33423L38.4764 3.28534C38.8644 3.54791 38.876 4.06139 38.876 4.28896V13.129H40.532V10.3049C41.0657 10.5268 41.6367 10.6437 42.2141 10.6491C43.7687 10.652 44.9876 9.66885 44.9876 7.85708Z" fill="#222222"/>
<path d="M50.2682 8.67677C50.0643 8.90973 49.8031 9.08444 49.5108 9.18329C49.2186 9.28214 48.9056 9.30165 48.6035 9.23985C48.3844 9.18791 48.1885 9.06452 48.0461 8.88885C47.9037 8.71318 47.8228 8.49505 47.8161 8.26832C47.8055 8.10297 47.8299 7.93724 47.8878 7.78216C47.9457 7.62709 48.0357 7.48621 48.1519 7.36891C48.268 7.25161 48.4076 7.16057 48.5613 7.10186C48.7151 7.04314 48.8795 7.01809 49.0436 7.02838H50.2682V8.67969V8.67677ZM59.9293 10.5265V2.46831H54.4633V7.45725C54.4633 8.47255 53.835 9.31862 52.9578 9.34196C52.5496 9.34196 51.9271 9.07939 51.9271 8.46671V5.06489C51.9271 3.399 51.0586 2.33994 49.1883 2.33994C48.1531 2.32024 47.1521 2.71347 46.4032 3.43401L47.2718 4.5164C47.7473 4.07155 48.3612 3.80658 49.0088 3.7666C49.5589 3.7666 50.2537 4.01167 50.2537 4.76147V5.61922H48.8959C46.9533 5.61922 46.1398 6.86208 46.1398 8.16913C46.1398 9.42657 46.823 10.6519 48.783 10.6519C49.4703 10.6235 50.1251 10.3494 50.6301 9.87879C50.9412 10.1769 51.3118 10.4047 51.7172 10.5471C52.1225 10.6895 52.5534 10.7431 52.981 10.7044C54.8657 10.6461 56.0758 9.62205 56.0266 7.40474V3.84537H58.3051V10.5265H59.9293Z" fill="#222222"/>
<path d="M81.8537 10.532L78.8862 6.27828L81.6597 2.48552H79.7721L77.6963 5.63935H76.6772V2.46802H75.0502V10.532H76.6454L76.6599 7.01641H77.6703L79.9603 10.532H81.8537Z" fill="#222222"/>
<path d="M73.9943 9.62772L73.3139 8.41404C72.373 9.08215 71.8085 9.28929 71.3366 9.28929C70.6736 9.28929 70.0106 8.94503 70.0106 8.24482V5.10267C70.0106 4.38496 70.6707 3.87731 71.4321 3.87731C72.0612 3.9279 72.6469 4.22039 73.0678 4.69421L73.9364 3.59431C73.6167 3.18877 73.2064 2.86507 72.739 2.6496C72.2716 2.43412 71.7603 2.33297 71.2468 2.35437C69.6111 2.35437 68.3517 3.36675 68.3517 5.11142V8.13396C68.3517 9.84654 69.6661 10.6518 71.2844 10.6518C72.2843 10.6458 73.2493 10.2806 74.0059 9.62189" fill="#222222"/>
<path d="M89.3146 10.5264V2.48572H87.6905L84.4016 7.96772V2.48572H82.7948V10.5264H84.4016H84.419L87.6905 5.07063V10.5264H89.3146Z" fill="#222222"/>
<path d="M38.4334 0H36.5805L35.1474 4.79344C35.1213 4.88097 35.0866 4.97725 35.0663 5.08519C35.0461 5.19314 35.0258 5.26024 35.0171 5.32734C35.0084 5.39445 34.9998 5.42946 34.9998 5.43237C34.9998 5.43529 34.9998 5.39737 34.9824 5.33318C34.965 5.269 34.9534 5.19022 34.9332 5.09686C34.9148 5.00307 34.8877 4.91125 34.8521 4.82262L32.7358 0H30.8481L34.2354 7.50088L34.0212 8.04353C33.7491 8.64454 33.0369 9.30681 31.7572 9.36224L31.9599 10.6634C33.8359 10.7043 35.0721 9.86405 35.5527 8.45782L38.4334 0Z" fill="#222222"/>
<path d="M111.058 16.1193H109.433V24.1599H111.058V16.1193Z" fill="#222222"/>
<path d="M104.41 22.8004H105.802C106.535 22.8004 106.824 21.9922 106.824 21.4525C106.824 20.9127 106.517 20.2329 105.776 20.2329H104.407V22.8004H104.41ZM102.754 24.1949V16.1193H104.41V18.8559H105.568C107.51 18.8559 108.541 20.0521 108.524 21.4262C108.506 22.8004 107.545 24.1949 105.588 24.1949H102.736H102.754Z" fill="#222222"/>
<path d="M38.5581 21.6683C38.5569 21.8238 38.5241 21.9775 38.4616 22.1198C38.3992 22.262 38.3084 22.3899 38.195 22.4955C38.0816 22.601 37.9479 22.682 37.8022 22.7334C37.6565 22.7848 37.5019 22.8056 37.3479 22.7944C37.1629 22.8135 36.9762 22.7828 36.8068 22.7054C36.6374 22.628 36.4915 22.5067 36.3838 22.3539V18.1702V17.998C36.5127 17.8411 36.6747 17.7151 36.858 17.6293C37.0413 17.5435 37.2413 17.5 37.4434 17.5021C37.5939 17.4984 37.7435 17.5265 37.8825 17.5846C38.0215 17.6427 38.1468 17.7296 38.2505 17.8395C38.3542 17.9495 38.4338 18.0801 38.4843 18.223C38.5348 18.3659 38.555 18.5178 38.5436 18.6691V21.6683H38.5581ZM34.7423 17.9309V18.0301V22.3539C34.6346 22.5067 34.4887 22.628 34.3193 22.7054C34.1499 22.7828 33.9632 22.8135 33.7782 22.7944C33.6252 22.8039 33.4718 22.7819 33.3275 22.7298C33.1831 22.6776 33.0509 22.5963 32.9387 22.491C32.8266 22.3856 32.7369 22.2583 32.6751 22.1169C32.6134 21.9754 32.5809 21.8228 32.5796 21.6683V18.5932C32.5682 18.4417 32.5885 18.2895 32.6392 18.1464C32.6898 18.0033 32.7697 17.8726 32.8737 17.7626C32.9777 17.6526 33.1034 17.5658 33.2428 17.5078C33.3821 17.4499 33.532 17.4221 33.6827 17.4262C33.8855 17.425 34.086 17.4698 34.2694 17.5571C34.4528 17.6445 34.6144 17.7722 34.7423 17.9309ZM40.243 21.4961V18.7187C40.243 16.9682 39.444 15.9762 37.7272 15.9762C37.2649 15.9764 36.8104 16.096 36.407 16.3234V14.8063H34.7423V16.3234C34.3388 16.0962 33.8843 15.9767 33.4221 15.9762C31.7053 15.9762 30.9062 16.9711 30.9062 18.7187V21.4932C30.9062 23.305 31.9977 24.2882 33.5524 24.2882C33.9718 24.2761 34.3813 24.1566 34.7423 23.941V26.7535H36.3983V23.941C36.7596 24.1555 37.169 24.2739 37.5882 24.2853C39.1429 24.2882 40.243 23.305 40.243 21.4932V21.4961Z" fill="#222222"/>
<path d="M45.8105 18.3974V19.3981H43.3381V18.5229C43.3381 17.8052 43.9519 17.3967 44.6641 17.3967C45.1012 17.3967 45.8221 17.6885 45.8221 18.4091L45.8105 18.3974ZM47.6721 23.2347L46.9744 21.9714C46.3606 22.5173 45.5752 22.8273 44.7567 22.8466C43.9635 22.8466 43.3497 22.4061 43.3497 21.5396V20.7752H47.481V18.8146C47.481 16.7724 46.1985 15.9905 44.6583 15.9905C42.8923 15.9905 41.6589 16.9037 41.6589 18.908V21.5892C41.6589 23.3834 42.817 24.285 44.6091 24.285C45.9264 24.2879 46.7196 23.859 47.6605 23.223L47.6721 23.2347Z" fill="#222222"/>
<path d="M50.9023 22.803C51.3105 22.3537 51.5652 21.496 51.545 20.6207V17.5048H53.8234V22.803H50.9023ZM55.4476 22.803V16.1219H49.9671V20.5653C49.9671 21.5777 49.3881 22.7797 48.4993 22.803H48.3488V26.1319H49.9266V24.183H54.7354V26.1348H56.3567V22.803H55.4476Z" fill="#222222"/>
<path d="M101.075 24.1599V16.1193H99.4475V19.2614H96.1616V16.1193H94.5519V24.1599H96.1616V20.6385H99.4475V24.1599H101.075Z" fill="#222222"/>
<path d="M69.2485 21.6825C69.2485 22.3827 68.5537 22.8087 67.9225 22.8087C67.4095 22.7956 66.9094 22.6435 66.475 22.3682V18.0386C66.9128 17.6745 67.4593 17.4691 68.0267 17.4551C68.1838 17.4488 68.3405 17.4742 68.4877 17.5298C68.6348 17.5854 68.7695 17.67 68.8838 17.7786C68.9982 17.8873 69.0898 18.0179 69.1534 18.1627C69.217 18.3076 69.2513 18.4637 69.2543 18.6221V21.6825H69.2485ZM70.9219 21.5075V18.7329C70.9219 16.9824 69.9954 15.9905 68.2786 15.9905C67.6301 15.9905 66.5155 16.2531 66.061 16.6265C65.9351 16.345 65.7103 16.1205 65.4298 15.9963L64.4078 16.9474C64.7958 17.21 64.8103 17.7235 64.8103 17.951V26.7678H66.4663V23.9582C67 24.1801 67.571 24.297 68.1483 24.3025C69.703 24.3025 70.9306 23.3222 70.9306 21.5104L70.9219 21.5075Z" fill="#222222"/>
<path d="M76.2029 22.3307C75.592 23.1272 73.7739 23.2293 73.7507 21.9222C73.7396 21.7561 73.7639 21.5895 73.822 21.4337C73.88 21.2778 73.9705 21.1363 74.0873 21.0185C74.2041 20.9008 74.3446 20.8096 74.4993 20.7511C74.6539 20.6926 74.8192 20.6682 74.9841 20.6794H76.2087V22.3307H76.2029ZM85.8755 24.1804V16.1193H80.398V21.1112C80.398 22.1264 79.7697 22.9725 78.8925 22.9959C78.4843 22.9959 77.8618 22.7333 77.8618 22.1206V18.7188C77.8618 17.0529 76.9933 15.9938 75.123 15.9938C74.0879 15.9745 73.087 16.3677 72.3379 17.0879L73.2065 18.1703C73.682 17.7255 74.2959 17.4605 74.9435 17.4205C75.4936 17.4205 76.1884 17.6656 76.1884 18.4154V19.2731H74.8306C72.888 19.2731 72.0745 20.516 72.0745 21.823C72.0745 23.0805 72.7577 24.3058 74.7177 24.3058C75.405 24.2774 76.0598 24.0033 76.5648 23.5327C76.876 23.8306 77.2466 24.0584 77.6519 24.2007C78.0573 24.3431 78.4881 24.3968 78.9156 24.3583C80.8004 24.2971 82.0105 23.273 81.9613 21.0586V17.5051H84.2485V24.1862H85.8697L85.8755 24.1804Z" fill="#222222"/>
<path d="M89.2128 22.8004H90.617C91.3494 22.8004 91.6389 21.9922 91.6389 21.4525C91.6389 20.9127 91.3321 20.2329 90.5909 20.2329H89.2215V22.8004H89.2128ZM87.5568 24.1949V16.1193H89.2128V18.8559H90.3709C92.3164 18.8559 93.3442 20.0521 93.3297 21.4262C93.3152 22.8004 92.3512 24.1949 90.3941 24.1949H87.5424H87.5568Z" fill="#222222"/>
<path d="M37.7474 29.7761H35.9438L34.3109 36.0254C34.3063 35.6375 34.2459 35.2522 34.1314 34.8818L32.7418 29.7732L30.9062 29.7907C30.9062 29.7907 33.0457 36.6031 33.5466 37.7964C33.3005 38.8496 32.7302 39.5469 31.52 39.6665L31.6764 40.8889C33.5119 40.8889 34.5541 39.8911 34.9334 38.6629L37.7474 29.7761Z" fill="#222222"/>
<path d="M45.3059 37.8169V29.7762H43.6818V32.9155H40.3929V29.7762H38.7861V37.8169H40.3929V34.2955H43.6818V37.8169H45.3059Z" fill="#222222"/>
<path d="M53.5048 37.8169V29.7762H51.8806L48.5918 35.2582V29.7762H46.985V37.8169H48.5918H48.6091L51.8806 32.3612V37.8169H53.5048Z" fill="#222222"/>
<path d="M91.4836 29.7762V31.1533H93.4987V37.8344H93.6029H95.1199H95.2242V31.1533H97.2421V29.7762H91.4836Z" fill="#222222"/>
<path d="M90.2787 37.8169V29.7762H88.6546L85.3657 35.2582V29.7762H83.7589V37.8169H85.3657H85.3831L88.6546 32.3612V37.8169H90.2787Z" fill="#222222"/>
<path d="M73.9387 35.3225C73.9387 36.0227 73.2438 36.4486 72.6127 36.4486C72.0997 36.4356 71.5996 36.2834 71.1651 36.0081V31.6756C71.6029 31.3114 72.1494 31.1059 72.7169 31.0921C72.874 31.0859 73.0307 31.1113 73.1778 31.1668C73.325 31.2224 73.4597 31.307 73.574 31.4157C73.6884 31.5243 73.78 31.6549 73.8436 31.7998C73.9072 31.9446 73.9415 32.1007 73.9445 32.2591V35.3342L73.9387 35.3225ZM75.6121 35.1474V32.3846C75.6121 30.634 74.6856 29.6421 72.9688 29.6421C72.3203 29.6421 71.2057 29.9047 70.7511 30.2781C70.6261 29.9954 70.4011 29.7697 70.12 29.645L69.098 30.5961C69.486 30.8587 69.4976 31.3722 69.4976 31.5997V40.4077H71.1565V37.5981C71.6902 37.8201 72.2612 37.937 72.8385 37.9424C74.4048 37.9278 75.6121 36.9592 75.6121 35.1474Z" fill="#222222"/>
<path d="M82.6993 36.8948L82.019 35.6811C81.078 36.3492 80.5135 36.5563 80.0445 36.5563C79.3815 36.5563 78.7185 36.2121 78.7185 35.5119V32.3843C78.7185 31.6666 79.3815 31.1589 80.1429 31.1589C80.7719 31.2098 81.3575 31.5023 81.7787 31.9758L82.6472 30.8759C82.3275 30.4704 81.9172 30.1467 81.4498 29.9312C80.9825 29.7157 80.4712 29.6146 79.9576 29.636C78.3219 29.636 77.0625 30.6484 77.0625 32.393V35.4127C77.0625 37.1252 78.3769 37.9305 79.9982 37.9305C80.998 37.9245 81.963 37.5593 82.7196 36.9006" fill="#222222"/>
<path d="M102.235 32.0345V33.0352H99.7629V32.1599C99.7629 31.4422 100.377 31.0337 101.089 31.0337C101.526 31.0337 102.247 31.3255 102.247 32.0461L102.235 32.0345ZM104.097 36.8717L103.385 35.5938C102.771 36.1398 101.986 36.4498 101.167 36.4691C100.374 36.4691 99.76 36.0285 99.76 35.162V34.4268H103.906V32.4662C103.906 30.424 102.623 29.6421 101.083 29.6421C99.3171 29.6421 98.0837 30.5553 98.0837 32.5596V35.2379C98.0837 37.0321 99.2418 37.9337 101.034 37.9337C102.351 37.9278 103.144 37.496 104.085 36.86L104.097 36.8717Z" fill="#222222"/>
<path d="M66.2986 32.0345V33.0352H63.8261V32.1599C63.8261 31.4422 64.4399 31.0337 65.1521 31.0337C65.5893 31.0337 66.3101 31.3255 66.3101 32.0461L66.2986 32.0345ZM68.1601 36.8717L67.4335 35.5938C66.8197 36.1398 66.0343 36.4498 65.2158 36.4691C64.4225 36.4691 63.8088 36.0285 63.8088 35.162V34.4268H67.9546V32.4662C67.9546 30.424 66.672 29.6421 65.1347 29.6421C63.3687 29.6421 62.1354 30.5553 62.1354 32.5596V35.2379C62.1354 37.0321 63.2934 37.9337 65.0855 37.9337C66.3999 37.9278 67.1932 37.496 68.1341 36.86L68.1601 36.8717Z" fill="#222222"/>
<defs>
<linearGradient id="paint0_linear_33_670" x1="16.6134" y1="4.72427e-05" x2="15.7612" y2="41.7411" gradientUnits="userSpaceOnUse">
<stop stop-color="#FF2D7F"/>
<stop offset="0.48" stop-color="#FB3727"/>
<stop offset="1" stop-color="#FEEA0F"/>
</linearGradient>
</defs>
</svg>
