<svg width="142" height="48" viewBox="0 0 142 48" fill="none" xmlns="http://www.w3.org/2000/svg">
<path d="M0 1.82891C3.71262 1.82891 5.28454 4.40102 6.95298 7.1615L20.6176 30.4509C21.2623 31.612 21.8965 33.0162 21.8793 34.3314C21.8276 37.7563 17.3531 39.0098 14.6747 39.1263C12.7307 39.1924 10.7984 38.8016 9.03508 37.9858L7.94577 39.3866C8.58005 42.0717 11.0827 45.3356 14.523 45.3082C20.497 45.2671 23.6339 39.8284 26.0332 35.4171L30.48 27.2281L17.5807 5.23327C16.3879 3.26737 18.3459 1.83576 20.428 1.80836L20.89 0H0.475712L0 1.82891Z" fill="white"/>
<path d="M75.3454 10.7403H77.0035C77.8756 10.7403 78.2203 9.79161 78.2203 9.158C78.2203 8.52439 77.8549 7.72639 76.9724 7.72639H75.3419V10.7403H75.3454ZM73.3736 12.3774V2.89728H75.3454V6.10984H76.7242C79.0373 6.10984 80.2645 7.51405 80.2438 9.12717C80.2231 10.7403 79.0787 12.3774 76.7484 12.3774H73.3529H73.3736Z" fill="white"/>
<path d="M135.623 17.1619C136.344 17.6953 137.219 17.9835 138.117 17.9835C139.016 17.9835 139.891 17.6953 140.611 17.1619L139.819 16.0043C139.329 16.3724 138.731 16.5716 138.117 16.5716C137.503 16.5716 136.906 16.3724 136.416 16.0043L135.623 17.1619ZM142.001 28.3613V18.9223H140.067L136.165 25.344V18.9223H134.248V28.3613H136.165L140.06 21.9568V28.3613H141.994H142.001Z" fill="white"/>
<path d="M73.2974 21.597V22.7718H70.3535V21.7443C70.3535 20.9018 71.0843 20.4223 71.9323 20.4223C72.4528 20.4223 73.3112 20.7648 73.3112 21.6107L73.2974 21.597ZM75.4932 27.2618L74.6625 25.7788C73.9316 26.4197 72.9965 26.7836 72.0219 26.8063C71.0774 26.8063 70.3466 26.2891 70.3466 25.2719V24.3883H75.2829V22.0868C75.2829 19.6894 73.7558 18.7715 71.9254 18.7715C69.8226 18.7715 68.3541 19.8435 68.3541 22.1964V25.3439C68.3541 27.4502 69.733 28.5085 71.8668 28.5085C73.4249 28.5119 74.3832 28.0084 75.4932 27.2618Z" fill="white"/>
<path d="M67.6818 42.7532H69.3399C70.212 42.7532 70.5567 42.0682 70.5567 41.4278C70.5677 41.2643 70.5425 41.1004 70.483 40.9475C70.4235 40.7947 70.331 40.6567 70.2121 40.5431C70.0932 40.4295 69.9508 40.3432 69.7947 40.2901C69.6387 40.2371 69.4728 40.2186 69.3088 40.2359H67.6783V42.7498L67.6818 42.7532ZM67.6818 36.5884V38.6262H69.102C69.238 38.6398 69.3754 38.623 69.504 38.5771C69.6326 38.5311 69.7493 38.4572 69.8455 38.3606C69.9416 38.2641 70.0149 38.1474 70.0598 38.0192C70.1047 37.8909 70.1202 37.7543 70.1051 37.6193C70.1121 37.4877 70.0922 37.3561 70.0466 37.2324C70.0011 37.1086 69.9307 36.9953 69.8399 36.8993C69.7491 36.8033 69.6396 36.7266 69.5181 36.6737C69.3966 36.6209 69.2656 36.593 69.133 36.5918H67.6818V36.5884ZM65.71 44.3869V34.9547H69.102C71.4323 34.9547 72.1631 36.3658 72.1286 37.4446C72.1352 37.8363 72.0298 38.2218 71.8248 38.5564C71.6198 38.891 71.3236 39.161 70.9704 39.3352C71.4443 39.4921 71.8556 39.7946 72.145 40.1991C72.4344 40.6036 72.5868 41.0891 72.5802 41.5853C72.5802 42.9553 71.5667 44.3937 69.233 44.3937H65.7065L65.71 44.3869Z" fill="white"/>
<path d="M124.705 34.9547V36.5713H127.108L127.104 44.4143H127.232H129.038H129.162V36.5713H131.561V34.9547H124.705Z" fill="white"/>
<path d="M109.735 1.15761C110.455 1.69105 111.33 1.97918 112.229 1.97918C113.127 1.97918 114.002 1.69105 114.723 1.15761L113.93 0C113.44 0.368094 112.843 0.567276 112.229 0.567276C111.614 0.567276 111.017 0.368094 110.527 0L109.735 1.15761ZM116.112 12.357V2.918H114.178L110.262 9.35336V2.918H108.345V12.357H110.279L114.175 5.95245V12.357H116.108H116.112Z" fill="white"/>
<path d="M51.5735 9.42907C51.5735 10.251 50.7461 10.7511 49.9947 10.7511C49.3838 10.7358 48.7884 10.5571 48.2711 10.2339V5.13767C48.7923 4.7101 49.443 4.46887 50.1188 4.45269C50.3057 4.44536 50.4923 4.47519 50.6676 4.54041C50.8428 4.60563 51.0032 4.70495 51.1393 4.83253C51.2754 4.96011 51.3845 5.1134 51.4603 5.28342C51.536 5.45343 51.5768 5.63676 51.5804 5.82265V9.42907H51.5735ZM53.5659 9.22358V5.96649C53.5659 3.91155 52.4628 2.74708 50.4187 2.74708C49.6465 2.74708 48.3193 3.05533 47.7781 3.49371C47.6319 3.15877 47.3652 2.89008 47.0301 2.74023L45.8132 3.85675C46.2752 4.16499 46.2889 4.76778 46.2889 5.03492V15.4124H48.2607V12.0971C48.8962 12.3577 49.5761 12.4948 50.2635 12.5012C52.1147 12.5046 53.5659 11.3504 53.5659 9.22358Z" fill="white"/>
<path d="M59.8534 10.1858C59.6106 10.4593 59.2996 10.6644 58.9516 10.7804C58.6036 10.8965 58.231 10.9194 57.8713 10.8468C57.6104 10.7858 57.3771 10.641 57.2075 10.4348C57.038 10.2285 56.9417 9.97248 56.9337 9.70633C56.9211 9.51222 56.9502 9.31767 57.0191 9.13562C57.0881 8.95357 57.1952 8.78819 57.3335 8.65049C57.4718 8.51279 57.638 8.40592 57.8211 8.337C58.0041 8.26807 58.1999 8.23867 58.3953 8.25074H59.8534V10.1892V10.1858ZM71.3567 12.3572V2.89762H64.8484V8.7542C64.8484 9.94607 64.1003 10.9393 63.0559 10.9667C62.5698 10.9667 61.8287 10.6584 61.8287 9.93922V5.94578C61.8287 3.99016 60.7945 2.74692 58.5676 2.74692C57.335 2.7238 56.1431 3.18541 55.2514 4.03126L56.2856 5.3019C56.8518 4.77968 57.5828 4.46863 58.3539 4.4217C59.0089 4.4217 59.8362 4.70939 59.8362 5.58959V6.59651H58.2195C55.9064 6.59651 54.9377 8.05552 54.9377 9.58988C54.9377 11.066 55.7513 12.5045 58.085 12.5045C58.9034 12.4711 59.683 12.1494 60.2843 11.5969C60.6547 11.9468 61.096 12.2143 61.5787 12.3814C62.0613 12.5486 62.5743 12.6115 63.0834 12.5661C65.3275 12.4976 66.7685 11.2955 66.7099 8.69255V4.51417H69.4228V12.3572H71.3567Z" fill="white"/>
<path d="M97.4618 12.3637L93.9285 7.3702L97.2309 2.91783H94.9833L92.5117 6.62015H91.2983V2.89728H89.361V12.3637H91.2603L91.2776 8.2367H92.4807L95.2074 12.3637H97.4618Z" fill="white"/>
<path d="M88.1038 11.3021L87.2937 9.87738C86.1734 10.6617 85.5012 10.9049 84.9393 10.9049C84.1499 10.9049 83.3605 10.5007 83.3605 9.67874V5.99012C83.3605 5.14759 84.1464 4.55166 85.0531 4.55166C85.8021 4.61104 86.4995 4.9544 87.0007 5.51063L88.0349 4.21944C87.6542 3.74336 87.1657 3.36337 86.6092 3.11042C86.0527 2.85748 85.4439 2.73873 84.8324 2.76386C82.8848 2.76386 81.3853 3.9523 81.3853 6.00039V9.54859C81.3853 11.559 82.9503 12.5043 84.8772 12.5043C86.0678 12.4973 87.2167 12.0686 88.1176 11.2953" fill="white"/>
<path d="M106.345 12.357V2.91797H104.411L100.495 9.35336V2.91797H98.5823V12.357H100.495H100.516L104.411 5.95243V12.357H106.345Z" fill="white"/>
<path d="M45.762 0H43.5558L41.8494 5.62709C41.8184 5.72983 41.777 5.84285 41.7529 5.96957C41.7288 6.0963 41.7046 6.17507 41.6943 6.25384C41.6839 6.33261 41.6736 6.37371 41.6736 6.37714C41.6736 6.38056 41.6736 6.33604 41.6529 6.26069C41.6322 6.18534 41.6184 6.09287 41.5943 5.98327C41.5724 5.87317 41.5401 5.76538 41.4978 5.66134L38.9779 0H36.7303L40.7635 8.80538L40.5085 9.44241C40.1844 10.1479 39.3364 10.9254 37.8128 10.9905L38.0541 12.518C40.2878 12.5659 41.7598 11.5795 42.332 9.92874L45.762 0Z" fill="white"/>
<path d="M132.234 18.9227H130.301V28.3617H132.234V18.9227Z" fill="white"/>
<path d="M124.319 26.7657H125.977C126.849 26.7657 127.194 25.817 127.194 25.1834C127.194 24.5498 126.828 23.7518 125.946 23.7518H124.315V26.7657H124.319ZM122.347 28.4028V18.9227H124.319V22.1352H125.698C128.011 22.1352 129.238 23.5394 129.217 25.1526C129.197 26.7657 128.052 28.4028 125.722 28.4028H122.326H122.347Z" fill="white"/>
<path d="M45.9104 25.4366C45.909 25.6192 45.87 25.7996 45.7956 25.9666C45.7212 26.1337 45.6132 26.2838 45.4782 26.4077C45.3431 26.5316 45.1839 26.6266 45.0105 26.687C44.837 26.7473 44.6529 26.7717 44.4695 26.7586C44.2492 26.781 44.0269 26.745 43.8253 26.6541C43.6236 26.5633 43.4498 26.4209 43.3216 26.2414V21.3301V21.1281C43.475 20.9438 43.6679 20.796 43.8862 20.6952C44.1045 20.5945 44.3426 20.5435 44.5833 20.5458C44.7624 20.5415 44.9405 20.5745 45.106 20.6427C45.2715 20.711 45.4208 20.8129 45.5442 20.942C45.6677 21.0711 45.7625 21.2244 45.8226 21.3922C45.8827 21.5599 45.9068 21.7383 45.8932 21.9158V25.4366H45.9104ZM41.3671 21.0493V21.1657V26.2414C41.2389 26.4209 41.0651 26.5633 40.8634 26.6541C40.6618 26.745 40.4394 26.781 40.2192 26.7586C40.0369 26.7698 39.8543 26.744 39.6825 26.6827C39.5106 26.6215 39.3531 26.5261 39.2196 26.4024C39.086 26.2787 38.9793 26.1293 38.9058 25.9632C38.8323 25.7972 38.7936 25.618 38.792 25.4366V21.8267C38.7785 21.6489 38.8026 21.4702 38.8629 21.3023C38.9232 21.1343 39.0184 20.9808 39.1422 20.8517C39.266 20.7225 39.4157 20.6207 39.5816 20.5526C39.7475 20.4846 39.926 20.452 40.1054 20.4568C40.3469 20.4554 40.5857 20.5079 40.8041 20.6105C41.0224 20.713 41.2148 20.863 41.3671 21.0493ZM47.9167 25.2345V21.974C47.9167 19.9191 46.9653 18.7546 44.9211 18.7546C44.3707 18.7549 43.8295 18.8952 43.3492 19.1622V17.3812H41.3671V19.1622C40.8866 18.8955 40.3455 18.7552 39.7952 18.7546C37.751 18.7546 36.7996 19.9225 36.7996 21.974V25.2311C36.7996 27.358 38.0991 28.5122 39.9503 28.5122C40.4497 28.498 40.9373 28.3577 41.3671 28.1046V31.4062H43.3389V28.1046C43.769 28.3564 44.2566 28.4954 44.7556 28.5087C46.6068 28.5122 47.9167 27.358 47.9167 25.2311V25.2345Z" fill="white"/>
<path d="M54.5458 21.597V22.7718H51.6019V21.7443C51.6019 20.9018 52.3327 20.4223 53.1807 20.4223C53.7012 20.4223 54.5596 20.7648 54.5596 21.6107L54.5458 21.597ZM56.7623 27.2755L55.9316 25.7925C55.2007 26.4334 54.2656 26.7973 53.291 26.82C52.3465 26.82 51.6157 26.3028 51.6157 25.2856V24.3883H56.5348V22.0868C56.5348 19.6894 55.0077 18.7715 53.1738 18.7715C51.071 18.7715 49.6025 19.8435 49.6025 22.1964V25.3439C49.6025 27.4502 50.9814 28.5085 53.1152 28.5085C54.6837 28.5119 55.6282 28.0084 56.7485 27.2618L56.7623 27.2755Z" fill="white"/>
<path d="M60.6085 26.7688C61.0946 26.2414 61.3979 25.2345 61.3738 24.207V20.5492H64.0867V26.7688H60.6085ZM66.0206 26.7688V18.9258H59.4951V24.1419C59.4951 25.3303 58.8057 26.7414 57.7474 26.7688H57.5681V30.6766H59.4468V28.3888H65.1726V30.68H67.103V26.7688H66.0206Z" fill="white"/>
<path d="M120.348 28.3617V18.9227H118.41V22.6113H114.498V18.9227H112.581V28.3617H114.498V24.2278H118.41V28.3617H120.348Z" fill="white"/>
<path d="M82.453 25.4535C82.453 26.2754 81.6257 26.7755 80.8742 26.7755C80.2633 26.7602 79.6679 26.5815 79.1506 26.2583V21.1758C79.672 20.7484 80.3226 20.5072 80.9983 20.4908C81.1853 20.4835 81.3719 20.5133 81.5471 20.5785C81.7223 20.6437 81.8827 20.743 82.0188 20.8706C82.155 20.9982 82.2641 21.1515 82.3398 21.3215C82.4156 21.4915 82.4564 21.6749 82.4599 21.8607V25.4535H82.453ZM84.4455 25.248V21.9909C84.4455 19.9359 83.3424 18.7715 81.2982 18.7715C80.526 18.7715 79.1989 19.0797 78.6577 19.5181C78.5078 19.1877 78.2401 18.9242 77.9062 18.7783L76.6893 19.8949C77.1513 20.2031 77.1685 20.8059 77.1685 21.073V31.4231H79.1403V28.1249C79.7758 28.3854 80.4556 28.5226 81.1431 28.529C82.9942 28.529 84.4558 27.3783 84.4558 25.2514L84.4455 25.248Z" fill="white"/>
<path d="M90.7334 26.2143C90.0061 27.1493 87.8412 27.2692 87.8137 25.7348C87.8004 25.5398 87.8293 25.3442 87.8985 25.1613C87.9676 24.9783 88.0753 24.8121 88.2144 24.6739C88.3535 24.5357 88.5207 24.4287 88.7049 24.36C88.8891 24.2914 89.0859 24.2626 89.2822 24.2758H90.7403V26.2143H90.7334ZM102.25 28.3857V18.9227H95.7284V24.7827C95.7284 25.9745 94.9803 26.9678 93.9359 26.9952C93.4498 26.9952 92.7087 26.6869 92.7087 25.9677V21.9743C92.7087 20.0186 91.6745 18.7754 89.4476 18.7754C88.2151 18.7527 87.0233 19.2142 86.1314 20.0597L87.1656 21.3304C87.7318 20.8082 88.4628 20.4971 89.2339 20.4502C89.8889 20.4502 90.7162 20.7379 90.7162 21.6181V22.625H89.0995C86.7864 22.625 85.8177 24.084 85.8177 25.6184C85.8177 27.0945 86.6313 28.5329 88.965 28.5329C89.7834 28.4996 90.563 28.1779 91.1643 27.6253C91.5349 27.9751 91.9761 28.2425 92.4588 28.4096C92.9414 28.5767 93.4543 28.6398 93.9634 28.5946C96.2075 28.5227 97.6485 27.3205 97.5899 24.721V20.5495H100.313V28.3925H102.244L102.25 28.3857Z" fill="white"/>
<path d="M106.224 26.7657H107.896C108.768 26.7657 109.113 25.817 109.113 25.1834C109.113 24.5498 108.748 23.7518 107.865 23.7518H106.235V26.7657H106.224ZM104.252 28.4028V18.9227H106.224V22.1352H107.603C109.92 22.1352 111.143 23.5394 111.126 25.1526C111.109 26.7657 109.961 28.4028 107.631 28.4028H104.235H104.252Z" fill="white"/>
<path d="M44.9452 34.9546H42.7976L40.8534 42.2907C40.848 41.8353 40.776 41.3831 40.6397 40.9482L38.9851 34.9512L36.7996 34.9717C36.7996 34.9717 39.347 42.9689 39.9434 44.3697C39.6504 45.606 38.9713 46.4246 37.5304 46.565L37.7165 48.0001C39.902 48.0001 41.143 46.8287 41.5946 45.3869L44.9452 34.9546Z" fill="white"/>
<path d="M53.945 44.3937V34.9547H52.0112V38.6399H48.0952V34.9547H46.182V44.3937H48.0952V40.2599H52.0112V44.3937H53.945Z" fill="white"/>
<path d="M63.7074 44.3937V34.9547H61.7735L57.8575 41.3901V34.9547H55.9443V44.3937H57.8575H57.8782L61.7735 37.9892V44.3937H63.7074Z" fill="white"/>
<path d="M108.928 34.9547V36.5713H111.327V44.4143H111.451H113.258H113.382V36.5713H115.785V34.9547H108.928Z" fill="white"/>
<path d="M107.493 44.3937V34.9547H105.56L101.644 41.3901V34.9547H99.7303V44.3937H101.644H101.664L105.56 37.9892V44.3937H107.493Z" fill="white"/>
<path d="M88.0375 41.4655C88.0375 42.2875 87.2102 42.7875 86.4587 42.7875C85.8478 42.7722 85.2524 42.5936 84.7351 42.2704V37.1844C85.2563 36.7568 85.907 36.5156 86.5828 36.4994C86.7698 36.4921 86.9563 36.5219 87.1316 36.5871C87.3068 36.6524 87.4672 36.7517 87.6033 36.8793C87.7394 37.0068 87.8486 37.1601 87.9243 37.3302C88 37.5002 88.0409 37.6835 88.0444 37.8694V41.4792L88.0375 41.4655ZM90.03 41.26V38.0167C90.03 35.9617 88.9268 34.7972 86.8827 34.7972C86.1105 34.7972 84.7833 35.1055 84.2421 35.5439C84.0933 35.212 83.8254 34.947 83.4907 34.8007L82.2738 35.9172C82.7357 36.2254 82.7495 36.8282 82.7495 37.0954V47.4351H84.7247V44.137C85.3602 44.3975 86.0401 44.5347 86.7276 44.5411C88.5925 44.524 90.03 43.3869 90.03 41.26Z" fill="white"/>
<path d="M98.4686 43.3112L97.6585 41.8864C96.5382 42.6707 95.866 42.9139 95.3075 42.9139C94.5181 42.9139 93.7287 42.5098 93.7287 41.6878V38.0163C93.7287 37.1738 94.5181 36.5778 95.4248 36.5778C96.1737 36.6376 96.871 36.9809 97.3724 37.5368L98.4065 36.2456C98.0259 35.7695 97.5374 35.3896 96.9809 35.1366C96.4244 34.8837 95.8156 34.7649 95.2041 34.79C93.2565 34.79 91.757 35.9785 91.757 38.0266V41.5713C91.757 43.5818 93.322 44.527 95.2524 44.527C96.4429 44.52 97.5919 44.0913 98.4927 43.3181" fill="white"/>
<path d="M121.73 37.6057V38.7804H118.786V37.7529C118.786 36.9104 119.517 36.4309 120.365 36.4309C120.885 36.4309 121.744 36.7734 121.744 37.6194L121.73 37.6057ZM123.946 43.2842L123.098 41.784C122.368 42.425 121.432 42.7888 120.458 42.8115C119.513 42.8115 118.783 42.2944 118.783 41.2772V40.4141H123.719V38.1125C123.719 35.7151 122.192 34.7972 120.358 34.7972C118.255 34.7972 116.787 35.8692 116.787 38.2221V41.3662C116.787 43.4725 118.165 44.5308 120.299 44.5308C121.868 44.524 122.812 44.0171 123.933 43.2705L123.946 43.2842Z" fill="white"/>
<path d="M78.9406 37.6057V38.7804H75.9967V37.7529C75.9967 36.9104 76.7275 36.4309 77.5755 36.4309C78.096 36.4309 78.9543 36.7734 78.9543 37.6194L78.9406 37.6057ZM81.1571 43.2842L80.2919 41.784C79.561 42.425 78.6258 42.7888 77.6513 42.8115C76.7068 42.8115 75.976 42.2944 75.976 41.2772V40.4141H80.9123V38.1125C80.9123 35.7151 79.3852 34.7972 77.5548 34.7972C75.452 34.7972 73.9835 35.8692 73.9835 38.2221V41.3662C73.9835 43.4725 75.3624 44.5308 77.4962 44.5308C79.0612 44.524 80.0057 44.0171 81.1261 43.2705L81.1571 43.2842Z" fill="white"/>
</svg>
