<svg width="52" height="52" viewBox="0 0 52 52" fill="none" xmlns="http://www.w3.org/2000/svg">
<circle cx="26" cy="26" r="26" transform="rotate(90 26 26)" fill="#EF302B"/>
<mask id="mask0_193_2668" style="mask-type:alpha" maskUnits="userSpaceOnUse" x="6" y="9" width="40" height="36">
<rect x="6" y="9" width="40" height="36" fill="#D9D9D9"/>
</mask>
<g mask="url(#mask0_193_2668)">
<path d="M17.666 38.9219C16.7493 38.9219 15.9646 38.6395 15.3118 38.0746C14.6591 37.5097 14.3327 36.8306 14.3327 36.0373L14.3327 17.2873L12.666 17.2873L12.666 14.4027L20.9993 14.4027L20.9993 12.9604L30.9993 12.9604L30.9993 14.4027L39.3327 14.4027L39.3327 17.2873L37.666 17.2873L37.666 36.0373C37.666 36.8306 37.3396 37.5097 36.6868 38.0746C36.0341 38.6395 35.2493 38.9219 34.3327 38.9219L17.666 38.9219ZM34.3327 17.2873L17.666 17.2873L17.666 36.0373L34.3327 36.0373L34.3327 17.2873ZM20.9993 33.1527L24.3327 33.1527L24.3327 20.1719L20.9993 20.1719L20.9993 33.1527ZM27.666 33.1527L30.9993 33.1527L30.9993 20.1719L27.666 20.1719L27.666 33.1527Z" fill="white"/>
</g>
</svg>
