<svg width="52" height="52" viewBox="0 0 52 52" fill="none" xmlns="http://www.w3.org/2000/svg">
<circle cx="26" cy="26" r="26" transform="rotate(90 26 26)" fill="#1E4391"/>
<mask id="mask0_432_324" style="mask-type:alpha" maskUnits="userSpaceOnUse" x="8" y="10" width="36" height="31">
<rect x="8" y="10" width="36" height="31" fill="#D9D9D9"/>
</mask>
<g mask="url(#mask0_432_324)">
<path d="M25.875 23.7375L27.2625 25.125L35.4 16.9875L34.0125 15.6L25.875 23.7375ZM15 36H16.3875L25.125 27.2625L23.7375 25.875L15 34.6125V36ZM28.3125 28.3125L22.6875 22.6875L28.95 16.425L27.8625 15.3375L19.65 23.55L17.55 21.45L25.725 13.2375C26.325 12.6375 27.0312 12.3375 27.8438 12.3375C28.6562 12.3375 29.3625 12.6375 29.9625 13.2375L31.05 14.325L32.925 12.45C33.225 12.15 33.5813 12 33.9938 12C34.4062 12 34.7625 12.15 35.0625 12.45L38.55 15.9375C38.85 16.2375 39 16.5938 39 17.0063C39 17.4188 38.85 17.775 38.55 18.075L28.3125 28.3125ZM17.625 39H12V33.375L22.6875 22.6875L28.3125 28.3125L17.625 39Z" fill="white"/>
</g>
</svg>
