<svg width="512" height="512" viewBox="0 0 512 512" style="color:#ffffff" xmlns="http://www.w3.org/2000/svg" class="h-full w-full"><rect width="512" height="512" x="0" y="0" rx="30" fill="transparent" stroke="transparent" stroke-width="0" stroke-opacity="100%" paint-order="stroke"></rect><svg width="256px" height="256px" viewBox="0 0 1024 1024" fill="#ffffff" x="128" y="128" role="img" style="display:inline-block;vertical-align:middle" xmlns="http://www.w3.org/2000/svg"><g fill="#ffffff"><path fill="currentColor" d="M893.3 293.3L730.7 130.7c-7.5-7.5-16.7-13-26.7-16V112H144c-17.7 0-32 14.3-32 32v736c0 17.7 14.3 32 32 32h736c17.7 0 32-14.3 32-32V338.5c0-17-6.7-33.2-18.7-45.2zM384 184h256v104H384V184zm456 656H184V184h136v136c0 17.7 14.3 32 32 32h320c17.7 0 32-14.3 32-32V205.8l136 136V840zM512 442c-79.5 0-144 64.5-144 144s64.5 144 144 144s144-64.5 144-144s-64.5-144-144-144zm0 224c-44.2 0-80-35.8-80-80s35.8-80 80-80s80 35.8 80 80s-35.8 80-80 80z"/></g></svg></svg>